<?xml version="1.0" ?><svg data-name="004_ROMANTIC" height="24" id="_004_ROMANTIC" viewBox="0 0 24 24" width="24" xmlns="http://www.w3.org/2000/svg"><title/><path d="M12,21.373c-1.34571-.0009-3.36721-1.5366-4.17481-2.1967a1.00035,1.00035,0,0,1,1.2676-1.5479,7.93547,7.93547,0,0,0,2.9111,1.7446c1.2383-.059,8.2832-5.1577,8.2832-10.9296a6.56012,6.56012,0,0,0-.249-1.7964A3.68075,3.68075,0,0,0,16.50589,4a3.88036,3.88036,0,0,0-3.5772,2.7441,1.00016,1.00016,0,0,1-1.8574,0A3.8808,3.8808,0,0,0,7.49509,4a3.68379,3.68379,0,0,0-3.5342,2.6479,6.54622,6.54622,0,0,0-.249,1.7955,10.93577,10.93577,0,0,0,2.707,6.4956.99969.99969,0,1,1-1.5566,1.2548,12.8695,12.8695,0,0,1-3.1504-7.7504,8.51957,8.51957,0,0,1,.3272-2.3457A5.69028,5.69028,0,0,1,7.49509,2,5.54076,5.54076,0,0,1,12,4.3267,5.54241,5.54241,0,0,1,16.50589,2a5.69064,5.69064,0,0,1,5.456,4.0981,8.56915,8.56915,0,0,1,.3252,2.3453C22.28709,15.2607,14.373,21.373,12,21.373Z" style="fill:#333"/><path d="M11.999,17a1.00035,1.00035,0,0,1-.88181-1.4707L11.93359,14h-1.5332a1.00049,1.00049,0,0,1-.8828-1.4707l1.5996-3a1.00045,1.00045,0,0,1,1.7656.9414L12.06639,12h1.5332a1.00048,1.00048,0,0,1,.8828,1.4707l-1.5996,3A1.00142,1.00142,0,0,1,11.999,17Z" style="fill:#333"/></svg>